<mxfile host="app.diagrams.net" agent="Mozilla/5.0 (Windows NT 10.0; Win64; x64) AppleWebKit/537.36 (KHTML, like Gecko) Chrome/128.0.0.0 Safari/537.36" version="24.7.14">
  <diagram name="Page-1" id="i7ahLX3rDdSSNSi5fB6n">
    <mxGraphModel dx="1434" dy="858" grid="1" gridSize="10" guides="1" tooltips="1" connect="1" arrows="1" fold="1" page="1" pageScale="1" pageWidth="1100" pageHeight="850" math="1" shadow="0">
      <root>
        <mxCell id="0" />
        <mxCell id="1" parent="0" />
        <mxCell id="c6xofA1sn_3DLMmSxvKZ-4" style="edgeStyle=orthogonalEdgeStyle;rounded=0;orthogonalLoop=1;jettySize=auto;html=1;exitX=0;exitY=0.5;exitDx=0;exitDy=0;entryX=0;entryY=0.5;entryDx=0;entryDy=0;strokeWidth=3;" edge="1" parent="1" source="c6xofA1sn_3DLMmSxvKZ-1" target="c6xofA1sn_3DLMmSxvKZ-2">
          <mxGeometry relative="1" as="geometry">
            <Array as="points">
              <mxPoint x="390" y="240" />
              <mxPoint x="390" y="360" />
            </Array>
          </mxGeometry>
        </mxCell>
        <mxCell id="c6xofA1sn_3DLMmSxvKZ-1" value="World" style="rounded=0;whiteSpace=wrap;html=1;fontSize=30;" vertex="1" parent="1">
          <mxGeometry x="440" y="200" width="200" height="80" as="geometry" />
        </mxCell>
        <mxCell id="c6xofA1sn_3DLMmSxvKZ-3" style="edgeStyle=orthogonalEdgeStyle;rounded=0;orthogonalLoop=1;jettySize=auto;html=1;exitX=1;exitY=0.5;exitDx=0;exitDy=0;entryX=1;entryY=0.5;entryDx=0;entryDy=0;strokeWidth=3;" edge="1" parent="1" source="c6xofA1sn_3DLMmSxvKZ-2" target="c6xofA1sn_3DLMmSxvKZ-1">
          <mxGeometry relative="1" as="geometry">
            <Array as="points">
              <mxPoint x="690" y="360" />
              <mxPoint x="690" y="240" />
            </Array>
          </mxGeometry>
        </mxCell>
        <mxCell id="c6xofA1sn_3DLMmSxvKZ-2" value="Agent" style="rounded=0;whiteSpace=wrap;html=1;fontSize=30;" vertex="1" parent="1">
          <mxGeometry x="440" y="320" width="200" height="80" as="geometry" />
        </mxCell>
        <mxCell id="c6xofA1sn_3DLMmSxvKZ-5" value="$$\text{observation }&amp;nbsp; o_t$$" style="text;html=1;align=center;verticalAlign=middle;whiteSpace=wrap;rounded=0;fontSize=25;" vertex="1" parent="1">
          <mxGeometry x="120" y="260" width="270" height="30" as="geometry" />
        </mxCell>
        <mxCell id="c6xofA1sn_3DLMmSxvKZ-6" value="$$\text{reward } r_t$$" style="text;html=1;align=center;verticalAlign=middle;whiteSpace=wrap;rounded=0;fontSize=25;" vertex="1" parent="1">
          <mxGeometry x="217" y="304" width="110" height="30" as="geometry" />
        </mxCell>
        <mxCell id="c6xofA1sn_3DLMmSxvKZ-7" value="$$\text{action } a_t$$" style="text;html=1;align=center;verticalAlign=middle;whiteSpace=wrap;rounded=0;fontSize=25;" vertex="1" parent="1">
          <mxGeometry x="706" y="285" width="110" height="30" as="geometry" />
        </mxCell>
      </root>
    </mxGraphModel>
  </diagram>
</mxfile>
